<?xml version="1.0" encoding="UTF-8"?>
<svg xmlns="http://www.w3.org/2000/svg" xmlns:xlink="http://www.w3.org/1999/xlink" width="50pt" height="49pt" viewBox="0 0 50 49" version="1.1">
<g id="surface1">
<path style=" stroke:none;fill-rule:nonzero;fill:rgb(0%,0%,0%);fill-opacity:1;" d="M 24.015625 1.082031 C 23.515625 1.128906 23.441406 1.144531 23.511719 1.210938 C 23.558594 1.261719 26.328125 1.34375 26.65625 1.304688 C 26.984375 1.261719 27.003906 1.195312 26.707031 1.15625 C 25.761719 1.023438 24.917969 0.996094 24.015625 1.082031 Z M 24.015625 1.082031 "/>
<path style=" stroke:none;fill-rule:nonzero;fill:rgb(0%,0%,0%);fill-opacity:1;" d="M 27.890625 1.742188 C 26.621094 2.089844 25.941406 2.214844 25.207031 2.214844 C 24.480469 2.214844 24.113281 2.148438 23.082031 1.84375 C 22.71875 1.734375 22.355469 1.636719 22.269531 1.621094 C 21.941406 1.566406 21.910156 1.609375 21.597656 2.566406 C 21.171875 3.859375 20.574219 5.832031 20.574219 5.941406 C 20.574219 5.992188 20.707031 6.136719 20.902344 6.269531 C 21.5625 6.753906 22.464844 7.054688 23.578125 7.164062 C 24.953125 7.300781 27.484375 6.925781 29.191406 6.335938 C 29.511719 6.222656 29.796875 6.113281 29.832031 6.089844 C 29.890625 6.054688 29.863281 5.832031 29.6875 4.929688 C 29.433594 3.585938 29.113281 2.230469 28.957031 1.824219 C 28.871094 1.589844 28.824219 1.535156 28.734375 1.539062 C 28.671875 1.539062 28.292969 1.632812 27.890625 1.742188 Z M 27.890625 1.742188 "/>
<path style=" stroke:none;fill-rule:nonzero;fill:rgb(0%,0%,0%);fill-opacity:1;" d="M 30.46875 4.996094 C 30.46875 5.019531 30.515625 5.3125 30.574219 5.648438 C 30.722656 6.550781 30.75 6.46875 30.230469 6.703125 C 28.71875 7.402344 26.285156 7.890625 24.296875 7.894531 C 22.9375 7.894531 22.097656 7.730469 21.171875 7.273438 C 20.53125 6.964844 19.738281 6.324219 19.738281 6.125 C 19.738281 6.089844 19.800781 5.863281 19.871094 5.628906 C 19.941406 5.390625 19.988281 5.1875 19.980469 5.179688 C 19.894531 5.09375 18.730469 5.664062 17.996094 6.15625 C 17.511719 6.484375 16.855469 7.089844 16.808594 7.261719 C 16.71875 7.59375 17.441406 8.210938 18.457031 8.664062 C 20.917969 9.765625 24.503906 10.117188 27.761719 9.582031 C 30.5625 9.121094 32.964844 8.109375 33.621094 7.121094 C 33.871094 6.742188 33.785156 6.417969 33.363281 6.046875 C 32.9375 5.675781 32.09375 5.324219 31.144531 5.109375 C 30.902344 5.054688 30.652344 5 30.589844 4.984375 C 30.519531 4.96875 30.46875 4.976562 30.46875 4.996094 Z M 30.46875 4.996094 "/>
<path style=" stroke:none;fill-rule:nonzero;fill:rgb(0%,0%,0%);fill-opacity:1;" d="M 28.261719 10.761719 C 27.824219 11.71875 27 12.683594 26.355469 13 C 25.519531 13.40625 24.65625 13.339844 23.878906 12.808594 C 23.34375 12.433594 22.984375 12 22.527344 11.152344 L 22.265625 10.664062 L 21.847656 10.679688 L 21.433594 10.691406 L 20.128906 11.324219 C 18.734375 12 17.941406 12.347656 17.109375 12.648438 C 16.238281 12.964844 15.753906 13.222656 15.5 13.503906 C 15.109375 13.925781 15.082031 14.007812 14.6875 15.847656 C 14.625 16.144531 14.453125 16.753906 14.296875 17.203125 C 13.40625 19.835938 12.972656 21.679688 12.808594 23.511719 C 12.71875 24.496094 12.769531 26.1875 12.910156 26.960938 C 13.140625 28.21875 13.535156 29.253906 14.15625 30.191406 C 15 31.46875 15.605469 32.527344 16.859375 34.933594 C 17.441406 36.058594 18.0625 37.210938 18.234375 37.492188 C 18.566406 38.046875 18.871094 38.394531 19.015625 38.394531 C 19.125 38.394531 19.652344 38.011719 19.902344 37.753906 C 20.984375 36.597656 22.355469 34.675781 23.863281 32.191406 C 24.722656 30.777344 25.09375 30.273438 27.347656 27.402344 C 28.191406 26.324219 29.574219 24.53125 30.292969 23.570312 C 32.28125 20.910156 34.015625 18.164062 34.847656 16.359375 C 35.410156 15.128906 35.730469 13.894531 35.652344 13.226562 C 35.589844 12.699219 35.058594 12.082031 34.4375 11.804688 C 34.066406 11.648438 33.472656 11.539062 33.160156 11.574219 C 32.925781 11.605469 32.839844 11.65625 32.46875 11.957031 C 30.9375 13.222656 28.980469 14.140625 26.464844 14.78125 C 24.21875 15.347656 21.488281 15.628906 20.207031 15.417969 C 18.722656 15.175781 17.925781 14.613281 17.703125 13.660156 C 17.667969 13.511719 17.644531 13.386719 17.660156 13.375 C 17.671875 13.363281 17.832031 13.339844 18.019531 13.320312 L 18.363281 13.28125 L 18.433594 13.539062 C 18.527344 13.902344 18.785156 14.175781 19.234375 14.386719 C 20.191406 14.832031 21.453125 14.882812 23.722656 14.566406 C 26.863281 14.132812 29.542969 13.175781 31.515625 11.78125 C 31.738281 11.617188 31.925781 11.472656 31.925781 11.453125 C 31.925781 11.433594 31.660156 11.320312 31.332031 11.203125 C 31.011719 11.085938 30.433594 10.839844 30.050781 10.65625 C 29.371094 10.328125 29.363281 10.328125 28.910156 10.328125 L 28.457031 10.328125 Z M 28.261719 10.761719 "/>
<path style=" stroke:none;fill-rule:nonzero;fill:rgb(0%,0%,0%);fill-opacity:1;" d="M 35.441406 16.808594 C 34.785156 18.199219 33.90625 19.6875 32.566406 21.640625 C 31.285156 23.507812 30.238281 24.910156 27.484375 28.425781 C 25.8125 30.558594 25.332031 31.21875 24.667969 32.308594 C 23.644531 33.96875 22.792969 35.265625 22.230469 36.027344 C 22.003906 36.332031 21.996094 36.320312 22.542969 36.550781 C 23.621094 37.015625 24.519531 37.027344 25.109375 36.597656 C 25.472656 36.324219 26.300781 35.972656 28.488281 35.148438 C 33.21875 33.371094 35.21875 32.433594 36.230469 31.53125 C 36.625 31.175781 36.75 30.941406 36.816406 30.425781 C 36.984375 29.152344 36.703125 24.386719 36.199219 20.09375 C 35.902344 17.578125 35.738281 16.304688 35.714844 16.277344 C 35.707031 16.269531 35.582031 16.507812 35.441406 16.808594 Z M 35.441406 16.808594 "/>
<path style=" stroke:none;fill-rule:nonzero;fill:rgb(0%,0%,0%);fill-opacity:1;" d="M 29.453125 41.347656 C 29.21875 41.398438 29.21875 41.371094 29.21875 44.550781 C 29.21875 48.007812 29.199219 47.824219 29.660156 48.058594 C 29.878906 48.167969 29.984375 48.1875 30.390625 48.183594 C 30.6875 48.183594 30.925781 48.152344 31.042969 48.105469 C 31.203125 48.035156 31.246094 48.035156 31.433594 48.105469 C 31.558594 48.152344 31.816406 48.183594 32.082031 48.1875 C 32.457031 48.1875 32.566406 48.167969 32.785156 48.058594 C 33.25 47.824219 33.230469 48.007812 33.230469 44.558594 C 33.230469 42.894531 33.207031 41.515625 33.1875 41.480469 C 33.109375 41.363281 32.863281 41.304688 32.71875 41.378906 L 32.578125 41.4375 L 32.550781 44.515625 C 32.535156 46.207031 32.515625 47.597656 32.5 47.613281 C 32.328125 47.769531 31.863281 47.796875 31.675781 47.671875 L 31.5625 47.59375 L 31.5625 44.535156 C 31.5625 41.152344 31.582031 41.351562 31.222656 41.351562 C 30.863281 41.351562 30.886719 41.152344 30.886719 44.53125 C 30.886719 48.023438 30.933594 47.726562 30.390625 47.726562 C 29.847656 47.726562 29.894531 48.023438 29.894531 44.53125 C 29.894531 42.148438 29.878906 41.464844 29.832031 41.421875 C 29.738281 41.351562 29.578125 41.320312 29.453125 41.347656 Z M 29.453125 41.347656 "/>
<path style=" stroke:none;fill-rule:nonzero;fill:rgb(0%,0%,0%);fill-opacity:1;" d="M 39.046875 41.363281 C 38.714844 41.417969 38.363281 41.628906 38.28125 41.816406 C 38.207031 41.996094 38.222656 42.082031 38.488281 42.945312 C 38.597656 43.300781 38.832031 44.066406 39.011719 44.660156 C 39.1875 45.253906 39.457031 46.136719 39.605469 46.628906 C 39.753906 47.117188 39.871094 47.546875 39.859375 47.578125 C 39.765625 47.835938 38.90625 47.78125 38.90625 47.523438 C 38.90625 47.421875 38.699219 47.292969 38.535156 47.292969 C 38.375 47.292969 38.230469 47.433594 38.230469 47.59375 C 38.230469 47.777344 38.535156 48.039062 38.855469 48.128906 C 39.191406 48.226562 39.519531 48.234375 39.875 48.140625 C 40.222656 48.050781 40.417969 47.921875 40.5 47.714844 C 40.574219 47.558594 40.535156 47.425781 39.738281 44.796875 C 39.28125 43.277344 38.90625 42.019531 38.90625 41.996094 C 38.90625 41.925781 39.082031 41.832031 39.277344 41.800781 C 39.527344 41.761719 39.800781 41.867188 39.886719 42.042969 C 39.984375 42.242188 40.160156 42.3125 40.359375 42.230469 C 40.636719 42.117188 40.621094 41.851562 40.3125 41.601562 C 40.0625 41.390625 39.503906 41.285156 39.046875 41.363281 Z M 39.046875 41.363281 "/>
<path style=" stroke:none;fill-rule:nonzero;fill:rgb(0%,0%,0%);fill-opacity:1;" d="M 42.109375 41.351562 C 41.871094 41.402344 41.875 41.296875 41.875 44.765625 L 41.875 48.054688 L 41.988281 48.128906 C 42.125 48.222656 42.308594 48.234375 42.453125 48.160156 C 42.546875 48.109375 42.550781 48.019531 42.550781 44.792969 C 42.550781 42.199219 42.535156 41.464844 42.488281 41.429688 C 42.402344 41.355469 42.234375 41.324219 42.109375 41.351562 Z M 42.109375 41.351562 "/>
<path style=" stroke:none;fill-rule:nonzero;fill:rgb(0%,0%,0%);fill-opacity:1;" d="M 6.878906 41.402344 C 6.707031 41.453125 6.625 41.589844 6.699219 41.703125 C 6.746094 41.777344 6.855469 41.800781 7.246094 41.820312 L 7.734375 41.847656 L 7.746094 44.992188 C 7.753906 47.890625 7.765625 48.140625 7.847656 48.199219 C 7.980469 48.292969 8.214844 48.277344 8.332031 48.160156 C 8.4375 48.058594 8.4375 47.992188 8.4375 44.941406 L 8.4375 41.820312 L 8.875 41.820312 C 9.207031 41.820312 9.332031 41.800781 9.394531 41.738281 C 9.5 41.644531 9.5 41.613281 9.40625 41.484375 C 9.339844 41.390625 9.253906 41.386719 8.167969 41.378906 C 7.527344 41.371094 6.949219 41.382812 6.878906 41.402344 Z M 6.878906 41.402344 "/>
<path style=" stroke:none;fill-rule:nonzero;fill:rgb(0%,0%,0%);fill-opacity:1;" d="M 16.546875 41.433594 C 16.453125 41.484375 16.390625 41.648438 16.171875 42.472656 C 16.03125 43.011719 15.902344 43.425781 15.878906 43.390625 C 15.863281 43.355469 15.75 42.925781 15.625 42.433594 C 15.5 41.945312 15.378906 41.511719 15.347656 41.472656 C 15.277344 41.386719 14.871094 41.398438 14.792969 41.488281 C 14.734375 41.554688 14.800781 41.871094 15.152344 43.269531 L 15.574219 44.964844 L 15.574219 46.5625 C 15.574219 48.089844 15.578125 48.160156 15.671875 48.210938 C 15.816406 48.285156 16 48.273438 16.136719 48.183594 C 16.25 48.105469 16.25 48.101562 16.25 46.464844 L 16.25 44.824219 L 16.667969 43.21875 C 16.972656 42.03125 17.066406 41.585938 17.03125 41.515625 C 16.96875 41.402344 16.703125 41.355469 16.546875 41.433594 Z M 16.546875 41.433594 "/>
<path style=" stroke:none;fill-rule:nonzero;fill:rgb(0%,0%,0%);fill-opacity:1;" d="M 18.636719 41.398438 C 18.433594 41.429688 18.355469 41.539062 18.425781 41.695312 C 18.484375 41.8125 18.515625 41.816406 18.96875 41.832031 L 19.453125 41.847656 L 19.464844 44.964844 C 19.480469 48.074219 19.480469 48.085938 19.589844 48.175781 C 19.730469 48.289062 19.90625 48.289062 20.046875 48.171875 C 20.15625 48.085938 20.15625 48.074219 20.171875 44.964844 L 20.183594 41.847656 L 20.644531 41.820312 C 21.011719 41.800781 21.121094 41.777344 21.167969 41.703125 C 21.246094 41.582031 21.152344 41.449219 20.957031 41.40625 C 20.792969 41.371094 18.863281 41.363281 18.636719 41.398438 Z M 18.636719 41.398438 "/>
<path style=" stroke:none;fill-rule:nonzero;fill:rgb(0%,0%,0%);fill-opacity:1;" d="M 35.066406 41.445312 C 34.949219 41.484375 34.777344 41.601562 34.6875 41.699219 L 34.53125 41.878906 L 34.53125 44.992188 C 34.53125 48.019531 34.535156 48.109375 34.628906 48.160156 C 34.785156 48.242188 35.027344 48.222656 35.121094 48.121094 C 35.199219 48.039062 35.207031 47.851562 35.207031 46.539062 C 35.207031 45.726562 35.21875 45.046875 35.230469 45.039062 C 35.238281 45.027344 35.464844 45.023438 35.722656 45.03125 L 36.199219 45.046875 L 36.199219 46.578125 C 36.199219 48.039062 36.203125 48.109375 36.296875 48.160156 C 36.449219 48.238281 36.699219 48.222656 36.792969 48.128906 C 36.863281 48.058594 36.875 47.707031 36.875 45 C 36.875 42.0625 36.871094 41.945312 36.769531 41.785156 C 36.609375 41.519531 36.300781 41.398438 35.753906 41.378906 C 35.425781 41.367188 35.21875 41.386719 35.066406 41.445312 Z M 36.09375 41.925781 C 36.191406 42.019531 36.199219 42.082031 36.1875 43.292969 L 36.171875 44.558594 L 35.234375 44.558594 L 35.21875 43.277344 C 35.207031 42.027344 35.207031 42 35.316406 41.910156 C 35.480469 41.78125 35.953125 41.785156 36.09375 41.925781 Z M 36.09375 41.925781 "/>
<path style=" stroke:none;fill-rule:nonzero;fill:rgb(0%,0%,0%);fill-opacity:1;" d="M 11.277344 41.535156 C 10.765625 41.769531 10.808594 41.453125 10.792969 44.992188 C 10.78125 47.777344 10.785156 48.109375 10.859375 48.183594 C 10.957031 48.273438 11.207031 48.289062 11.359375 48.210938 C 11.453125 48.160156 11.457031 48.089844 11.457031 46.628906 L 11.457031 45.09375 L 12.449219 45.09375 L 12.449219 46.597656 C 12.449219 47.894531 12.457031 48.117188 12.53125 48.183594 C 12.625 48.273438 12.875 48.289062 13.027344 48.210938 C 13.121094 48.160156 13.125 48.070312 13.125 45.046875 L 13.125 41.9375 L 13.011719 41.796875 C 12.707031 41.417969 11.816406 41.285156 11.277344 41.535156 Z M 12.332031 41.953125 C 12.449219 42.03125 12.449219 42.046875 12.449219 43.308594 L 12.449219 44.582031 L 11.457031 44.582031 L 11.46875 43.292969 L 11.484375 42.003906 L 11.613281 41.9375 C 11.796875 41.847656 12.191406 41.859375 12.332031 41.953125 Z M 12.332031 41.953125 "/>
<path style=" stroke:none;fill-rule:nonzero;fill:rgb(0%,0%,0%);fill-opacity:1;" d="M 23.109375 41.488281 C 22.78125 41.613281 22.609375 41.761719 22.550781 41.976562 C 22.515625 42.109375 22.5 43.195312 22.5 45.109375 C 22.503906 48.359375 22.496094 48.265625 22.828125 48.265625 C 22.921875 48.265625 23.050781 48.226562 23.113281 48.183594 C 23.230469 48.105469 23.230469 48.09375 23.230469 46.597656 L 23.230469 45.09375 L 24.167969 45.09375 L 24.167969 46.59375 C 24.167969 48.277344 24.160156 48.265625 24.546875 48.265625 C 24.910156 48.265625 24.902344 48.390625 24.886719 44.988281 C 24.871094 41.546875 24.894531 41.78125 24.4375 41.554688 C 24.128906 41.40625 23.417969 41.371094 23.109375 41.488281 Z M 24.050781 41.953125 C 24.167969 42.03125 24.167969 42.046875 24.167969 43.308594 L 24.167969 44.582031 L 23.230469 44.582031 L 23.230469 43.308594 C 23.230469 42.046875 23.230469 42.03125 23.34375 41.953125 C 23.40625 41.910156 23.566406 41.871094 23.699219 41.871094 C 23.828125 41.871094 23.988281 41.910156 24.050781 41.953125 Z M 24.050781 41.953125 "/>
</g>
</svg>
