<?xml version="1.0" encoding="UTF-8"?>
<svg xmlns="http://www.w3.org/2000/svg" xmlns:xlink="http://www.w3.org/1999/xlink" width="75pt" height="74pt" viewBox="0 0 75 74" version="1.1">
<g id="surface1">
<path style=" stroke:none;fill-rule:nonzero;fill:rgb(0%,0%,0%);fill-opacity:1;" d="M 36.023438 1.636719 C 35.273438 1.707031 35.164062 1.730469 35.265625 1.828125 C 35.335938 1.90625 39.492188 2.03125 39.984375 1.96875 C 40.476562 1.90625 40.507812 1.808594 40.0625 1.746094 C 38.640625 1.542969 37.375 1.503906 36.023438 1.636719 Z M 36.023438 1.636719 "/>
<path style=" stroke:none;fill-rule:nonzero;fill:rgb(0%,0%,0%);fill-opacity:1;" d="M 41.835938 2.632812 C 39.929688 3.15625 38.914062 3.34375 37.8125 3.34375 C 36.71875 3.34375 36.171875 3.242188 34.625 2.789062 C 34.078125 2.617188 33.53125 2.472656 33.40625 2.449219 C 32.914062 2.363281 32.867188 2.433594 32.398438 3.875 C 31.757812 5.828125 30.859375 8.808594 30.859375 8.972656 C 30.859375 9.050781 31.0625 9.265625 31.351562 9.464844 C 32.34375 10.199219 33.695312 10.65625 35.367188 10.816406 C 37.429688 11.027344 41.226562 10.460938 43.789062 9.566406 C 44.265625 9.398438 44.695312 9.234375 44.75 9.195312 C 44.835938 9.140625 44.796875 8.808594 44.53125 7.441406 C 44.148438 5.414062 43.671875 3.367188 43.4375 2.757812 C 43.304688 2.402344 43.234375 2.316406 43.101562 2.324219 C 43.007812 2.324219 42.4375 2.464844 41.835938 2.632812 Z M 41.835938 2.632812 "/>
<path style=" stroke:none;fill-rule:nonzero;fill:rgb(0%,0%,0%);fill-opacity:1;" d="M 45.703125 7.542969 C 45.703125 7.582031 45.773438 8.023438 45.859375 8.53125 C 46.085938 9.890625 46.125 9.765625 45.34375 10.121094 C 43.078125 11.179688 39.429688 11.914062 36.445312 11.921875 C 34.40625 11.921875 33.148438 11.675781 31.757812 10.988281 C 30.796875 10.515625 29.609375 9.550781 29.609375 9.25 C 29.609375 9.195312 29.703125 8.855469 29.804688 8.5 C 29.914062 8.136719 29.984375 7.835938 29.96875 7.820312 C 29.84375 7.691406 28.09375 8.554688 26.992188 9.296875 C 26.265625 9.789062 25.28125 10.710938 25.210938 10.964844 C 25.078125 11.464844 26.164062 12.398438 27.6875 13.085938 C 31.375 14.746094 36.757812 15.28125 41.640625 14.46875 C 45.84375 13.773438 49.445312 12.246094 50.429688 10.753906 C 50.804688 10.183594 50.679688 9.691406 50.046875 9.132812 C 49.40625 8.570312 48.140625 8.039062 46.71875 7.714844 C 46.351562 7.636719 45.976562 7.550781 45.882812 7.527344 C 45.78125 7.503906 45.703125 7.511719 45.703125 7.542969 Z M 45.703125 7.542969 "/>
<path style=" stroke:none;fill-rule:nonzero;fill:rgb(0%,0%,0%);fill-opacity:1;" d="M 42.390625 16.253906 C 41.734375 17.695312 40.5 19.15625 39.53125 19.636719 C 38.28125 20.246094 36.984375 20.144531 35.820312 19.339844 C 35.015625 18.777344 34.476562 18.121094 33.789062 16.839844 L 33.398438 16.105469 L 32.773438 16.128906 L 32.148438 16.144531 L 30.195312 17.101562 C 28.101562 18.121094 26.914062 18.648438 25.664062 19.101562 C 24.359375 19.582031 23.632812 19.96875 23.25 20.390625 C 22.664062 21.03125 22.625 21.15625 22.03125 23.9375 C 21.9375 24.382812 21.679688 25.300781 21.445312 25.980469 C 20.109375 29.957031 19.460938 32.738281 19.210938 35.511719 C 19.078125 36.992188 19.15625 39.546875 19.367188 40.714844 C 19.710938 42.613281 20.304688 44.179688 21.234375 45.59375 C 22.5 47.523438 23.40625 49.121094 25.289062 52.757812 C 26.164062 54.457031 27.09375 56.195312 27.351562 56.621094 C 27.851562 57.460938 28.304688 57.984375 28.523438 57.984375 C 28.6875 57.984375 29.476562 57.40625 29.851562 57.011719 C 31.476562 55.269531 33.53125 52.363281 35.796875 48.613281 C 37.085938 46.480469 37.640625 45.71875 41.023438 41.386719 C 42.289062 39.757812 44.359375 37.046875 45.4375 35.59375 C 48.421875 31.578125 51.023438 27.433594 52.273438 24.707031 C 53.117188 22.847656 53.59375 20.984375 53.476562 19.976562 C 53.382812 19.179688 52.585938 18.246094 51.65625 17.828125 C 51.101562 17.589844 50.210938 17.425781 49.742188 17.480469 C 49.390625 17.527344 49.257812 17.605469 48.703125 18.058594 C 46.40625 19.96875 43.46875 21.355469 39.695312 22.320312 C 36.328125 23.179688 32.234375 23.605469 30.3125 23.289062 C 28.085938 22.917969 26.890625 22.066406 26.554688 20.632812 C 26.5 20.40625 26.46875 20.214844 26.492188 20.199219 C 26.507812 20.183594 26.75 20.144531 27.03125 20.113281 L 27.546875 20.058594 L 27.648438 20.445312 C 27.789062 20.992188 28.179688 21.410156 28.851562 21.726562 C 30.289062 22.398438 32.179688 22.476562 35.585938 21.996094 C 40.296875 21.339844 44.3125 19.898438 47.273438 17.789062 C 47.609375 17.542969 47.890625 17.328125 47.890625 17.296875 C 47.890625 17.265625 47.492188 17.09375 47 16.917969 C 46.515625 16.738281 45.648438 16.367188 45.078125 16.089844 C 44.054688 15.597656 44.046875 15.597656 43.367188 15.597656 L 42.6875 15.597656 Z M 42.390625 16.253906 "/>
<path style=" stroke:none;fill-rule:nonzero;fill:rgb(0%,0%,0%);fill-opacity:1;" d="M 53.164062 25.386719 C 52.179688 27.488281 50.859375 29.734375 48.851562 32.683594 C 46.929688 35.503906 45.359375 37.617188 41.226562 42.929688 C 38.71875 46.148438 38 47.144531 37 48.789062 C 35.46875 51.300781 34.1875 53.261719 33.34375 54.410156 C 33.007812 54.867188 32.992188 54.851562 33.8125 55.199219 C 35.429688 55.902344 36.78125 55.917969 37.664062 55.269531 C 38.210938 54.859375 39.453125 54.328125 42.734375 53.082031 C 49.828125 50.394531 52.828125 48.984375 54.34375 47.617188 C 54.9375 47.082031 55.125 46.730469 55.226562 45.949219 C 55.476562 44.027344 55.054688 36.832031 54.296875 30.34375 C 53.851562 26.546875 53.609375 24.621094 53.570312 24.585938 C 53.5625 24.570312 53.375 24.933594 53.164062 25.386719 Z M 53.164062 25.386719 "/>
<path style=" stroke:none;fill-rule:nonzero;fill:rgb(0%,0%,0%);fill-opacity:1;" d="M 44.179688 62.441406 C 43.828125 62.519531 43.828125 62.480469 43.828125 67.28125 C 43.828125 72.503906 43.796875 72.222656 44.492188 72.578125 C 44.820312 72.742188 44.976562 72.773438 45.585938 72.765625 C 46.03125 72.765625 46.390625 72.71875 46.5625 72.648438 C 46.804688 72.539062 46.867188 72.539062 47.148438 72.648438 C 47.335938 72.71875 47.726562 72.765625 48.125 72.773438 C 48.6875 72.773438 48.851562 72.742188 49.179688 72.578125 C 49.875 72.222656 49.84375 72.503906 49.84375 67.289062 C 49.84375 64.78125 49.8125 62.695312 49.78125 62.640625 C 49.664062 62.464844 49.296875 62.378906 49.078125 62.488281 L 48.867188 62.582031 L 48.828125 67.226562 C 48.804688 69.785156 48.773438 71.882812 48.75 71.90625 C 48.492188 72.140625 47.796875 72.183594 47.515625 71.992188 L 47.34375 71.875 L 47.34375 67.257812 C 47.34375 62.148438 47.375 62.449219 46.835938 62.449219 C 46.296875 62.449219 46.328125 62.148438 46.328125 67.25 C 46.328125 72.523438 46.398438 72.078125 45.585938 72.078125 C 44.773438 72.078125 44.84375 72.523438 44.84375 67.25 C 44.84375 63.652344 44.820312 62.617188 44.75 62.558594 C 44.609375 62.449219 44.367188 62.402344 44.179688 62.441406 Z M 44.179688 62.441406 "/>
<path style=" stroke:none;fill-rule:nonzero;fill:rgb(0%,0%,0%);fill-opacity:1;" d="M 58.570312 62.464844 C 58.070312 62.550781 57.546875 62.867188 57.421875 63.152344 C 57.3125 63.421875 57.335938 63.554688 57.734375 64.859375 C 57.898438 65.390625 58.25 66.550781 58.515625 67.445312 C 58.78125 68.339844 59.1875 69.675781 59.40625 70.417969 C 59.632812 71.160156 59.804688 71.808594 59.789062 71.851562 C 59.648438 72.238281 58.359375 72.164062 58.359375 71.769531 C 58.359375 71.613281 58.046875 71.421875 57.804688 71.421875 C 57.5625 71.421875 57.34375 71.636719 57.34375 71.875 C 57.34375 72.15625 57.804688 72.546875 58.28125 72.6875 C 58.789062 72.835938 59.28125 72.84375 59.8125 72.703125 C 60.335938 72.5625 60.625 72.371094 60.75 72.0625 C 60.859375 71.824219 60.804688 71.621094 59.609375 67.652344 C 58.921875 65.359375 58.359375 63.460938 58.359375 63.421875 C 58.359375 63.3125 58.625 63.175781 58.914062 63.128906 C 59.289062 63.066406 59.703125 63.230469 59.828125 63.492188 C 59.976562 63.792969 60.242188 63.902344 60.539062 63.777344 C 60.953125 63.605469 60.929688 63.207031 60.46875 62.828125 C 60.09375 62.511719 59.257812 62.347656 58.570312 62.464844 Z M 58.570312 62.464844 "/>
<path style=" stroke:none;fill-rule:nonzero;fill:rgb(0%,0%,0%);fill-opacity:1;" d="M 63.164062 62.449219 C 62.804688 62.527344 62.8125 62.363281 62.8125 67.605469 L 62.8125 72.570312 L 62.984375 72.6875 C 63.1875 72.828125 63.460938 72.84375 63.679688 72.734375 C 63.820312 72.65625 63.828125 72.515625 63.828125 67.644531 C 63.828125 63.730469 63.804688 62.617188 63.734375 62.566406 C 63.601562 62.457031 63.351562 62.410156 63.164062 62.449219 Z M 63.164062 62.449219 "/>
<path style=" stroke:none;fill-rule:nonzero;fill:rgb(0%,0%,0%);fill-opacity:1;" d="M 10.320312 62.527344 C 10.0625 62.601562 9.9375 62.8125 10.046875 62.980469 C 10.117188 63.089844 10.28125 63.128906 10.867188 63.160156 L 11.601562 63.199219 L 11.617188 67.945312 C 11.632812 72.324219 11.648438 72.703125 11.773438 72.789062 C 11.96875 72.933594 12.320312 72.910156 12.5 72.734375 C 12.65625 72.578125 12.65625 72.480469 12.65625 67.871094 L 12.65625 63.160156 L 13.3125 63.160156 C 13.8125 63.160156 14 63.128906 14.09375 63.035156 C 14.25 62.890625 14.25 62.84375 14.109375 62.648438 C 14.007812 62.511719 13.882812 62.503906 12.25 62.488281 C 11.289062 62.480469 10.421875 62.496094 10.320312 62.527344 Z M 10.320312 62.527344 "/>
<path style=" stroke:none;fill-rule:nonzero;fill:rgb(0%,0%,0%);fill-opacity:1;" d="M 24.820312 62.574219 C 24.679688 62.648438 24.585938 62.898438 24.257812 64.140625 C 24.046875 64.957031 23.851562 65.582031 23.820312 65.53125 C 23.796875 65.476562 23.625 64.828125 23.4375 64.085938 C 23.25 63.34375 23.070312 62.6875 23.023438 62.632812 C 22.914062 62.503906 22.304688 62.519531 22.1875 62.65625 C 22.101562 62.757812 22.203125 63.238281 22.726562 65.34375 L 23.359375 67.90625 L 23.359375 70.316406 C 23.359375 72.625 23.367188 72.734375 23.507812 72.8125 C 23.726562 72.917969 24 72.902344 24.203125 72.765625 C 24.375 72.648438 24.375 72.640625 24.375 70.171875 L 24.375 67.691406 L 25 65.265625 C 25.460938 63.476562 25.601562 62.804688 25.546875 62.695312 C 25.453125 62.527344 25.054688 62.457031 24.820312 62.574219 Z M 24.820312 62.574219 "/>
<path style=" stroke:none;fill-rule:nonzero;fill:rgb(0%,0%,0%);fill-opacity:1;" d="M 27.953125 62.519531 C 27.648438 62.566406 27.53125 62.734375 27.640625 62.964844 C 27.726562 63.144531 27.773438 63.152344 28.453125 63.175781 L 29.179688 63.199219 L 29.195312 67.90625 C 29.21875 72.601562 29.21875 72.617188 29.382812 72.757812 C 29.59375 72.925781 29.859375 72.925781 30.070312 72.75 C 30.234375 72.617188 30.234375 72.601562 30.257812 67.90625 L 30.273438 63.199219 L 30.96875 63.160156 C 31.515625 63.128906 31.679688 63.089844 31.75 62.980469 C 31.867188 62.796875 31.726562 62.597656 31.4375 62.535156 C 31.1875 62.480469 28.296875 62.464844 27.953125 62.519531 Z M 27.953125 62.519531 "/>
<path style=" stroke:none;fill-rule:nonzero;fill:rgb(0%,0%,0%);fill-opacity:1;" d="M 52.601562 62.589844 C 52.421875 62.648438 52.164062 62.828125 52.03125 62.972656 L 51.796875 63.246094 L 51.796875 67.945312 C 51.796875 72.515625 51.804688 72.65625 51.945312 72.734375 C 52.179688 72.855469 52.539062 72.828125 52.679688 72.671875 C 52.796875 72.546875 52.8125 72.261719 52.8125 70.285156 C 52.8125 69.058594 52.828125 68.03125 52.84375 68.015625 C 52.859375 68 53.195312 67.992188 53.585938 68.007812 L 54.296875 68.03125 L 54.296875 70.339844 C 54.296875 72.546875 54.304688 72.65625 54.445312 72.734375 C 54.671875 72.847656 55.046875 72.828125 55.1875 72.6875 C 55.296875 72.578125 55.3125 72.046875 55.3125 67.960938 C 55.3125 63.523438 55.304688 63.34375 55.15625 63.105469 C 54.914062 62.703125 54.453125 62.519531 53.632812 62.488281 C 53.140625 62.472656 52.828125 62.503906 52.601562 62.589844 Z M 54.140625 63.3125 C 54.289062 63.460938 54.296875 63.554688 54.28125 65.382812 L 54.257812 67.289062 L 52.851562 67.289062 L 52.828125 65.359375 C 52.8125 63.46875 52.8125 63.429688 52.976562 63.289062 C 53.21875 63.097656 53.929688 63.105469 54.140625 63.3125 Z M 54.140625 63.3125 "/>
<path style=" stroke:none;fill-rule:nonzero;fill:rgb(0%,0%,0%);fill-opacity:1;" d="M 16.914062 62.726562 C 16.148438 63.082031 16.210938 62.601562 16.1875 67.945312 C 16.171875 72.15625 16.179688 72.65625 16.289062 72.765625 C 16.4375 72.902344 16.8125 72.925781 17.039062 72.8125 C 17.179688 72.734375 17.1875 72.625 17.1875 70.417969 L 17.1875 68.101562 L 18.671875 68.101562 L 18.671875 70.371094 C 18.671875 72.332031 18.6875 72.664062 18.796875 72.765625 C 18.9375 72.902344 19.3125 72.925781 19.539062 72.8125 C 19.679688 72.734375 19.6875 72.59375 19.6875 68.03125 L 19.6875 63.335938 L 19.515625 63.121094 C 19.0625 62.550781 17.726562 62.347656 16.914062 62.726562 Z M 18.5 63.359375 C 18.671875 63.476562 18.671875 63.5 18.671875 65.40625 L 18.671875 67.328125 L 17.1875 67.328125 L 17.203125 65.382812 L 17.226562 63.4375 L 17.421875 63.335938 C 17.695312 63.199219 18.289062 63.214844 18.5 63.359375 Z M 18.5 63.359375 "/>
<path style=" stroke:none;fill-rule:nonzero;fill:rgb(0%,0%,0%);fill-opacity:1;" d="M 34.664062 62.65625 C 34.171875 62.84375 33.914062 63.066406 33.828125 63.390625 C 33.773438 63.59375 33.75 65.238281 33.75 68.125 C 33.757812 73.035156 33.742188 72.886719 34.242188 72.886719 C 34.382812 72.886719 34.578125 72.835938 34.671875 72.765625 C 34.84375 72.648438 34.84375 72.632812 34.84375 70.371094 L 34.84375 68.101562 L 36.25 68.101562 L 36.25 70.363281 C 36.25 72.910156 36.242188 72.886719 36.820312 72.886719 C 37.367188 72.886719 37.351562 73.082031 37.328125 67.9375 C 37.304688 62.742188 37.34375 63.097656 36.65625 62.757812 C 36.195312 62.535156 35.125 62.480469 34.664062 62.65625 Z M 36.078125 63.359375 C 36.25 63.476562 36.25 63.5 36.25 65.40625 L 36.25 67.328125 L 34.84375 67.328125 L 34.84375 65.40625 C 34.84375 63.5 34.84375 63.476562 35.015625 63.359375 C 35.109375 63.289062 35.351562 63.238281 35.546875 63.238281 C 35.742188 63.238281 35.984375 63.289062 36.078125 63.359375 Z M 36.078125 63.359375 "/>
</g>
</svg>
