<?xml version="1.0" standalone="no"?>
<!DOCTYPE svg PUBLIC "-//W3C//DTD SVG 20010904//EN"
 "http://www.w3.org/TR/2001/REC-SVG-20010904/DTD/svg10.dtd">
<svg version="1.0" xmlns="http://www.w3.org/2000/svg"
 width="960.000000pt" height="958.000000pt" viewBox="0 0 960.000000 958.000000"
 preserveAspectRatio="xMidYMid meet">

<g transform="translate(0.000000,958.000000) scale(0.100000,-0.100000)"
fill="#000000" stroke="none">
<path d="M4611 9368 c-96 -9 -110 -12 -97 -25 9 -10 541 -26 604 -18 63 8 67
21 10 29 -182 26 -344 31 -517 14z"/>
<path d="M5355 9239 c-244 -68 -374 -92 -515 -92 -140 0 -210 13 -408 72 -70
22 -140 41 -156 44 -63 11 -69 2 -129 -185 -82 -253 -197 -639 -197 -660 0
-10 26 -38 63 -64 127 -95 300 -154 514 -175 264 -27 750 46 1078 162 61 22
116 43 123 48 11 7 6 50 -28 227 -49 263 -110 528 -140 607 -17 46 -26 57 -43
56 -12 0 -85 -18 -162 -40z"/>
<path d="M5850 8603 c0 -5 9 -62 20 -128 29 -176 34 -160 -66 -206 -290 -137
-757 -232 -1139 -233 -261 0 -422 32 -600 121 -123 61 -275 186 -275 225 0 7
12 51 25 97 14 47 23 86 21 88 -16 17 -240 -95 -381 -191 -93 -64 -219 -183
-228 -216 -17 -65 122 -186 317 -275 472 -215 1161 -284 1786 -179 538 90 999
288 1125 481 48 74 32 138 -49 210 -82 73 -244 142 -426 184 -47 10 -95 21
-107 24 -13 3 -23 2 -23 -2z"/>
<path d="M5426 7475 c-84 -187 -242 -376 -366 -438 -160 -79 -326 -66 -475 38
-103 73 -172 158 -260 324 l-50 95 -80 -3 -80 -2 -250 -124 c-268 -132 -420
-200 -580 -259 -167 -62 -260 -112 -309 -167 -75 -83 -80 -99 -156 -459 -12
-58 -45 -177 -75 -265 -171 -515 -254 -875 -286 -1234 -17 -192 -7 -523 20
-674 44 -246 120 -449 239 -632 162 -250 278 -457 519 -928 112 -220 231 -445
264 -500 64 -109 122 -177 150 -177 21 0 122 75 170 126 208 226 471 602 761
1088 165 276 236 375 669 936 162 211 427 562 565 750 382 520 715 1057 875
1410 108 241 169 482 154 613 -12 103 -114 224 -233 278 -71 31 -185 52 -245
45 -45 -6 -62 -16 -133 -75 -294 -247 -670 -427 -1153 -552 -431 -111 -955
-166 -1201 -125 -285 48 -438 158 -481 344 -7 29 -11 54 -8 56 2 2 33 7 69 11
l66 7 13 -50 c18 -71 68 -125 154 -166 184 -87 426 -97 862 -35 603 85 1117
272 1496 545 43 32 79 60 79 64 0 4 -51 26 -114 49 -62 23 -173 71 -246 107
-131 64 -132 64 -219 64 l-87 0 -38 -85z"/>
<path d="M6805 6292 c-126 -272 -295 -563 -552 -945 -246 -365 -447 -639 -976
-1327 -321 -417 -413 -546 -541 -759 -196 -325 -360 -579 -468 -728 -43 -59
-45 -57 60 -102 207 -91 380 -93 493 -9 70 53 229 122 649 283 908 348 1292
531 1486 708 76 69 100 115 113 216 32 249 -22 1181 -119 2021 -57 492 -88
741 -93 746 -1 2 -25 -45 -52 -104z"/>
<path d="M5655 1493 c-45 -10 -45 -5 -45 -627 0 -676 -4 -640 85 -686 42 -21
62 -25 140 -24 57 0 103 6 125 15 31 14 39 14 75 0 24 -9 74 -15 125 -16 72 0
93 4 135 25 89 46 85 10 85 685 0 325 -4 595 -8 602 -15 23 -62 34 -90 20
l-27 -12 -5 -602 c-3 -331 -7 -603 -10 -606 -33 -30 -122 -36 -158 -11 l-22
15 0 598 c0 662 4 623 -65 623 -69 0 -65 39 -65 -622 0 -683 9 -625 -95 -625
-104 0 -95 -58 -95 625 0 466 -3 600 -12 608 -18 14 -49 20 -73 15z"/>
<path d="M7497 1490 c-64 -11 -131 -52 -147 -89 -14 -35 -11 -52 40 -221 21
-69 66 -219 100 -335 34 -116 86 -289 114 -385 29 -96 51 -180 49 -186 -18
-50 -183 -40 -183 11 0 20 -40 45 -71 45 -31 0 -59 -28 -59 -59 0 -36 59 -87
120 -105 65 -19 128 -20 196 -2 67 18 104 43 120 83 14 31 7 57 -146 571 -88
297 -160 543 -160 548 0 14 34 32 71 38 48 8 101 -13 117 -47 19 -39 53 -53
91 -37 53 22 50 74 -9 123 -48 41 -155 62 -243 47z"/>
<path d="M8085 1492 c-46 -10 -45 11 -45 -668 l0 -643 22 -15 c26 -18 61 -20
89 -6 18 10 19 28 19 659 0 507 -3 651 -12 658 -17 14 -49 20 -73 15z"/>
<path d="M1321 1482 c-33 -10 -49 -37 -35 -59 9 -14 30 -19 105 -23 l94 -5 2
-615 c2 -567 4 -616 20 -627 25 -19 70 -16 93 7 20 20 20 33 20 630 l0 610 84
0 c64 0 88 4 100 16 20 19 20 25 2 50 -13 18 -29 19 -238 21 -123 1 -234 -1
-247 -5z"/>
<path d="M3177 1476 c-18 -10 -30 -42 -72 -203 -27 -106 -52 -187 -56 -180 -3
7 -25 91 -49 187 -24 96 -47 181 -53 188 -14 17 -92 15 -107 -3 -11 -13 2 -75
69 -348 l81 -332 0 -312 c0 -299 1 -313 19 -323 28 -14 63 -12 89 6 22 15 22
16 22 336 l0 321 80 314 c59 232 77 319 70 333 -12 22 -63 31 -93 16z"/>
<path d="M3578 1483 c-39 -6 -54 -28 -40 -58 11 -23 17 -24 104 -27 l93 -3 2
-610 c3 -608 3 -610 24 -628 27 -22 61 -22 88 1 21 17 21 19 24 627 l2 610 89
5 c70 4 91 9 100 23 15 24 -3 50 -40 58 -32 7 -402 9 -446 2z"/>
<path d="M6733 1474 c-23 -8 -56 -31 -73 -50 l-30 -35 0 -609 c0 -592 1 -610
19 -620 30 -16 76 -12 94 8 15 16 17 53 17 309 0 159 2 292 4 294 2 2 45 3 95
1 l91 -3 0 -299 c0 -286 1 -300 19 -310 29 -15 77 -12 95 6 14 14 16 83 16
612 0 575 -1 598 -20 629 -31 52 -90 76 -195 80 -63 2 -103 -2 -132 -13z m197
-94 c19 -19 20 -31 18 -268 l-3 -247 -90 0 -90 0 -3 250 c-2 245 -2 250 19
268 31 25 122 24 149 -3z"/>
<path d="M2165 1456 c-98 -46 -90 16 -93 -676 -2 -545 -1 -610 13 -624 19 -18
67 -21 96 -6 18 10 19 24 19 310 l0 300 95 0 95 0 0 -294 c0 -254 2 -297 16
-310 18 -18 66 -21 95 -6 18 10 19 28 19 619 l0 608 -22 28 c-58 74 -229 100
-333 51z m203 -82 c22 -15 22 -18 22 -265 l0 -249 -95 0 -95 0 2 252 3 252 25
13 c35 18 111 16 138 -3z"/>
<path d="M4437 1465 c-63 -24 -96 -53 -107 -95 -7 -26 -10 -239 -10 -613 1
-636 -1 -617 63 -617 18 0 43 7 55 16 22 15 22 17 22 310 l0 294 90 0 90 0 0
-293 c0 -330 -1 -327 73 -327 70 0 68 -25 65 641 -3 673 2 627 -86 671 -59 29
-196 36 -255 13z m181 -91 c22 -15 22 -18 22 -265 l0 -249 -90 0 -90 0 0 249
c0 247 0 250 22 265 12 9 43 16 68 16 25 0 56 -7 68 -16z"/>
</g>
</svg>
